<svg xmlns="http://www.w3.org/2000/svg" width="26" height="26" viewBox="0 0 26 26">
    <g fill="#46C8EB" fill-rule="evenodd">
        <path d="M13.029 2.2C7.058 2.2 2.2 7.058 2.2 13.029 2.2 19 7.058 23.858 13.029 23.858 19 23.858 23.858 19 23.858 13.029 23.858 7.058 19 2.2 13.029 2.2m0 22.858C6.396 25.058 1 19.662 1 13.029S6.396 1 13.029 1s12.029 5.396 12.029 12.029-5.396 12.029-12.029 12.029"/>
        <path d="M17.992 15.94l-4.489 2.515v-4.516l.907-.508 3.582-2.007v4.517zm-9.984-4.516l3.582 2.007.906.508v4.516l-4.488-2.514v-4.517zm4.991-3.36l4.481 2.509-1.37.767L13 13.083 9.888 11.34l-1.369-.767L13 8.063zm5.933 2.262c-.015-.025-.043-.039-.061-.06-.037-.044-.07-.09-.122-.12l-.002-.001-.001-.001-5.497-3.079a.512.512 0 0 0-.5 0l-5.495 3.079h-.001c-.001.002-.002 0-.002.002-.052.03-.085.076-.122.12-.018.021-.047.035-.061.06a.49.49 0 0 0-.068.247v5.654c0 .177.097.341.254.43l5.492 3.076h.002l.002.002a.513.513 0 0 0 .5 0l.002-.001.002-.001 5.492-3.077a.492.492 0 0 0 .254-.429v-5.654a.49.49 0 0 0-.068-.247z"/>
    </g>
</svg>
