<svg xmlns="http://www.w3.org/2000/svg" width="20" height="20" viewBox="0 0 20 20">
    <path fill="#FFCF00" fill-rule="evenodd" d="M16.74 13.176l-5.61 3.143v-5.646l1.132-.635 4.478-2.507v5.645zM4.26 7.531l4.478 2.507 1.131.635v5.646L4.26 13.176V7.531zm6.24-4.202l5.6 3.137-1.712.96-3.889 2.177-3.888-2.177-1.711-.96 5.6-3.137zm7.416 2.828c-.02-.031-.055-.048-.077-.075-.047-.055-.088-.113-.153-.15l-.002-.001-.002-.001-6.87-3.848a.64.64 0 0 0-.625 0L3.317 5.93c-.002.002-.003 0-.003.002-.066.037-.106.095-.153.15-.022.027-.059.044-.077.075A.612.612 0 0 0 3 6.466v7.068c0 .221.121.426.318.536l6.865 3.846v.001h.001l.003.001a.64.64 0 0 0 .625 0h.004v-.002l6.866-3.846a.616.616 0 0 0 .318-.536V6.466c0-.11-.03-.216-.084-.31z"/>
</svg>
