<svg xmlns="http://www.w3.org/2000/svg" width="60" height="60" viewBox="0 0 60 60">
    <path fill="#00AAE6" fill-rule="evenodd" d="M28.245 31.777h3.51V28.27h-3.51v3.508zm8.736 0c.462 0 .84.378.84.84 0 .462-.378.84-.84.84h-3.547v3.548c0 .461-.378.839-.84.839a.842.842 0 0 1-.84-.84v-3.547h-3.509v3.548c0 .461-.377.839-.839.839a.842.842 0 0 1-.84-.84v-3.547h-3.547a.842.842 0 0 1-.84-.84c0-.462.377-.84.84-.84h3.547V28.27h-3.547a.842.842 0 0 1-.84-.84c0-.462.377-.84.84-.84h3.547v-3.548c0-.461.378-.84.84-.84.462 0 .84.379.84.84v3.548h3.508v-3.548c0-.461.378-.84.84-.84.462 0 .84.379.84.84v3.548h3.547c.462 0 .84.378.84.84 0 .462-.378.84-.84.84h-3.547v3.508h3.547zM30 58.93c15.952 0 28.93-12.978 28.93-28.93S45.953 1.07 30 1.07 1.07 14.048 1.07 30 14.048 58.93 30 58.93zM30 0c16.542 0 30 13.458 30 30S46.542 60 30 60 0 46.542 0 30 13.458 0 30 0zm16.355 37.597v-16.44l-5.926 3.537c-.237-.468-.505-.92-.801-1.35l5.981-3.571-14.149-8.448a2.843 2.843 0 0 0-2.92 0L14.39 19.773l5.981 3.571c-.296.43-.563.882-.801 1.35l-5.926-3.538v16.44c0 1.026.554 1.976 1.446 2.48l14.124 7.981v-6.426c.26.017.52.03.785.03.264 0 .526-.013.785-.03v6.426l14.123-7.98a2.853 2.853 0 0 0 1.447-2.48zm1.543-18.028a.78.78 0 0 1 .028.204v17.824c0 1.59-.86 3.064-2.246 3.847l-15.294 8.642c-.04.023-.083.036-.125.05-.02.008-.04.02-.06.026a.781.781 0 0 1-.402 0c-.02-.006-.04-.018-.06-.025-.043-.015-.086-.028-.125-.05l-15.295-8.643a4.426 4.426 0 0 1-2.245-3.847V19.773c0-.07.01-.138.028-.204.005-.022.017-.042.025-.063.016-.042.03-.085.052-.124.014-.024.033-.043.05-.066.023-.032.044-.066.073-.095.02-.02.046-.036.069-.054.028-.023.054-.05.086-.068l15.277-9.123a4.414 4.414 0 0 1 4.53 0L47.544 19.1c.032.019.057.045.086.068.023.018.048.033.07.054.028.029.049.063.073.095.016.023.035.042.048.066.023.038.037.081.052.123.008.021.02.041.026.064z"/>
</svg>
