<svg xmlns="http://www.w3.org/2000/svg" width="11" height="13" viewBox="0 0 11 13">
    <path fill="#919191" fill-rule="evenodd" d="M7.988 1.862c.634 0 1.15.508 1.15 1.134v8.393c0 .625-.516 1.134-1.15 1.134H1.15A1.144 1.144 0 0 1 0 11.39V2.996c0-.626.516-1.134 1.151-1.134h6.837zm0 .509H1.15a.63.63 0 0 0-.634.625v8.393a.63.63 0 0 0 .634.625h6.837a.63.63 0 0 0 .634-.625V2.996a.63.63 0 0 0-.634-.625zM9.905 0c.564 0 1.029.425 1.089.969l.006.118V9.13c0 .432-.256.802-.624.976l-.114.047V9.61a.598.598 0 0 0 .238-.383l.008-.097V1.087a.6.6 0 0 0-.505-.591L9.905.488H3.4a.6.6 0 0 0-.424.175l-.06.07h-.547c.136-.387.481-.676.902-.726L3.4 0h6.505zM6.846 9c.144 0 .262.114.262.254s-.118.254-.262.254H1.784a.258.258 0 0 1-.26-.254c0-.14.117-.254.26-.254h5.062zm0-1.533c.144 0 .262.114.262.254s-.118.253-.262.253H1.784a.258.258 0 0 1-.26-.253c0-.14.117-.254.26-.254h5.062zm0-1.534c.144 0 .262.115.262.254 0 .14-.118.254-.262.254H1.784a.258.258 0 0 1-.26-.254c0-.14.117-.254.26-.254h5.062zm0-1.533c.144 0 .262.114.262.254s-.118.254-.262.254H1.784a.258.258 0 0 1-.26-.254c0-.14.117-.254.26-.254h5.062z"/>
</svg>
