<svg xmlns="http://www.w3.org/2000/svg" width="60" height="60" viewBox="0 0 60 60">
    <path fill="#56E161" fill-rule="evenodd" d="M30 58.582c15.76 0 28.582-12.822 28.582-28.582C58.582 14.24 45.76 1.418 30 1.418 14.24 1.418 1.418 14.24 1.418 30 1.418 45.76 14.24 58.582 30 58.582zM30 0c16.542 0 30 13.458 30 30S46.542 60 30 60 0 46.542 0 30 13.458 0 30 0zm16.234 18.705V16.09c0-1.044-.849-1.894-1.893-1.894s-1.894.85-1.894 1.894v2.614h3.787zM41.03 16.09c0-.704.221-1.357.597-1.894H20.863c-1.044 0-1.893.85-1.893 1.894v23.786h17.564c.392 0 .709.318.709.71v3.322c0 1.044.85 1.894 1.893 1.894 1.044 0 1.893-.85 1.893-1.894V16.091zM15.66 45.803h20.762a3.294 3.294 0 0 1-.596-1.894v-2.614h-22.06v2.614c0 1.044.85 1.894 1.894 1.894zM44.341 12.78a3.315 3.315 0 0 1 3.312 3.31v3.324a.71.71 0 0 1-.71.709h-4.496v23.786a3.315 3.315 0 0 1-3.31 3.311H15.658a3.315 3.315 0 0 1-3.311-3.31v-3.324c0-.391.317-.709.709-.709h4.495V16.091a3.315 3.315 0 0 1 3.311-3.311h23.478zM23.333 24.81v6.388c0 .372.201.717.525.9l5.661 2.86v-6.783l-5.715-3.108-.471-.256zm6.137-3.726l-5.596 2.926L30 27.34l2.921-1.588 3.205-1.743-5.572-2.913a1.046 1.046 0 0 0-1.084-.013zm7.197 3.727l-.471.256-5.715 3.108v6.784l5.68-2.872a1.03 1.03 0 0 0 .506-.89v-6.386zm-13.262 8.135a2.006 2.006 0 0 1-1.034-1.748V24 24v-.003c0-.012.004-.023.005-.035.003-.03.005-.06.013-.09.004-.015.012-.028.018-.042.01-.026.018-.05.031-.073l.03-.04c.016-.02.03-.04.049-.059.012-.012.026-.02.04-.031.016-.013.03-.029.049-.04l.013-.005.01-.007L29 20.245a1.984 1.984 0 0 1 2.024.012l6.347 3.318.01.007c.004.002.009.003.013.006.018.01.033.026.049.039.014.01.028.02.04.031.02.018.034.039.049.06.01.013.021.025.03.039.013.023.022.047.031.072.006.015.014.028.018.044.008.028.01.058.013.089.001.012.005.023.005.035v7.201c0 .718-.388 1.384-1.014 1.737l-6.398 3.235c-.019.01-.039.014-.059.021l-.037.014a.483.483 0 0 1-.121.017.48.48 0 0 1-.12-.017c-.014-.003-.026-.01-.039-.014-.02-.007-.039-.012-.058-.021l-6.378-3.224z"/>
</svg>
