<svg xmlns="http://www.w3.org/2000/svg" width="60" height="60" viewBox="0 0 60 60">
    <path fill="#FFCF00" fill-rule="evenodd" d="M30 59.03c16.008 0 29.031-13.022 29.031-29.03 0-16.007-13.023-29.03-29.03-29.03C13.992.97.968 13.992.968 30 .97 46.008 13.993 59.03 30 59.03zM30 0c16.543 0 30 13.458 30 30S46.543 60 30 60C13.458 60 0 46.542 0 30S13.458 0 30 0zm19.282 34.02c.306-.174.51-.522.51-.897v-6.436l-6.234 3.39v6.836l5.724-2.893zm-16.186 2.954l4.63-1.433-1.299-.656a2.022 2.022 0 0 1-1.042-1.762V25.87c0-.01.004-.018.004-.028.001-.015.004-.03.007-.046a.477.477 0 0 1 .041-.135c.004-.007.003-.015.007-.022l.006-.007a.48.48 0 0 1 .107-.129c.012-.01.024-.017.037-.026.017-.012.032-.026.051-.036l2.216-1.158-4.334-1.62-3.308 1.673a.482.482 0 0 1-.437 0l-3.307-1.671-4.417 1.575 2.297 1.2c.019.011.034.026.052.037l.036.026c.043.037.08.08.108.129l.005.007c.004.007.003.015.007.022a.49.49 0 0 1 .042.135c.002.016.005.03.006.046 0 .01.004.019.004.028v7.252c0 .724-.392 1.395-1.022 1.751l-1.203.609 4.402 1.55 2.19-1.145a2.01 2.01 0 0 1 2.05.007l2.064 1.08zm3.113 10.842c.307-.174.51-.521.51-.897v-6.356l-6.234 3.39v6.756l5.724-2.893zm-12.927-.897c0 .376.203.723.53.907l5.704 2.883v-6.755l-6.234-3.391v6.356zm6.16-10.178l-5.69 2.974L30 43.113l6.248-3.398-5.69-2.974a1.055 1.055 0 0 0-1.116 0zm-19.233-3.618c0 .375.203.723.53.907l5.704 2.883v-6.836l-6.234-3.39v6.436zm7.203-3.046v6.836l5.724-2.893c.307-.174.51-.522.51-.897v-6.436l-6.234 3.39zm-1.019-7.146l-5.639 2.949 6.173 3.357L23.1 25.88l-5.614-2.935a1.055 1.055 0 0 0-1.093-.014zm7.41-2.702l1.854.937 3.859 1.95v-6.915l-6.234-3.39v6.515c0 .372.2.717.52.903zm5.663-11.094l-5.564 2.909L30 15.361l6.098-3.317-5.54-2.895a1.053 1.053 0 0 0-1.092-.014zm6.743 11.088c.307-.174.51-.521.51-.897V12.81l-6.234 3.39v6.916l5.724-2.893zm.146 6.464v6.436c0 .375.203.723.53.907l5.703 2.883v-6.836l-6.233-3.39zm6.183-3.756L36.9 25.88l6.173 3.357 6.173-3.357-5.615-2.935-.024-.014a1.043 1.043 0 0 0-1.069 0zm8.219 2.912c0 .01.003.019.003.028v7.252c0 .724-.39 1.395-1.022 1.751l-6.447 3.26-.02.007-.028.01a.476.476 0 0 1-.17.035.476.476 0 0 1-.17-.035l-.028-.01c-.007-.003-.014-.004-.02-.008l-2.962-1.497-4.674 1.448 2.209 1.154c.16.084.26.25.26.43v7.251c0 .725-.391 1.396-1.022 1.751l-6.27 3.17a.476.476 0 0 1-.396.222.475.475 0 0 1-.396-.222l-6.25-3.159a2.021 2.021 0 0 1-1.042-1.762v-7.251c0-.18.1-.346.26-.43l2.176-1.137-4.444-1.564-3.158 1.596c-.006.004-.014.005-.02.008l-.028.01a.478.478 0 0 1-.17.035.478.478 0 0 1-.17-.035l-.029-.01c-.006-.003-.014-.004-.02-.008l-6.427-3.248a2.022 2.022 0 0 1-1.042-1.762V25.87c0-.01.003-.018.004-.028 0-.015.003-.03.006-.046a.49.49 0 0 1 .042-.135c.003-.007.003-.015.006-.022.002-.003.005-.004.006-.007a.481.481 0 0 1 .108-.129c.011-.01.024-.017.036-.026.018-.011.033-.026.052-.036l6.42-3.357a1.998 1.998 0 0 1 2.039.014l2.061 1.077 4.377-1.56-1.043-.528-.02-.01a2.015 2.015 0 0 1-1.022-1.752v-7.251c0-.021.006-.04.009-.061a.474.474 0 0 1 .05-.25.482.482 0 0 1 .452-.25l6.17-3.224a1.996 1.996 0 0 1 2.038.013l6.147 3.212c.18-.01.36.08.451.249.043.08.054.165.05.25.003.02.009.04.009.06v7.252c0 .725-.391 1.396-1.022 1.752l-1.09.551 4.294 1.604 2.196-1.148a1.996 1.996 0 0 1 2.025.006l6.41 3.35c.018.011.034.026.051.037l.036.026c.044.037.08.08.108.129l.006.007c.004.007.003.015.007.022.02.043.034.088.041.135.003.016.006.03.007.046z"/>
</svg>
