<svg xmlns="http://www.w3.org/2000/svg" width="60" height="60" viewBox="0 0 60 60">
    <path fill="#DCF8FF" fill-rule="evenodd" d="M30 1.418C14.24 1.418 1.418 14.24 1.418 30 1.418 45.76 14.24 58.582 30 58.582c15.76 0 28.582-12.822 28.582-28.582C58.582 14.24 45.76 1.418 30 1.418zM30 60C13.458 60 0 46.542 0 30S13.458 0 30 0s30 13.458 30 30-13.458 30-30 30zm9.072-28.161H36.06l-1.618 3.483a.481.481 0 0 1-.436.278h-.01a.48.48 0 0 1-.434-.296l-2.1-5.032-2.494 6.951a.48.48 0 0 1-.927-.082l-2.076-12.3-2.38 6.678a.48.48 0 0 1-.453.32h-2.205a3.135 3.135 0 0 1-3.093 2.65 3.134 3.134 0 0 1-3.13-3.131 3.133 3.133 0 0 1 3.13-3.13 3.135 3.135 0 0 1 3.093 2.649h1.865l2.887-8.1a.48.48 0 1 1 .927.081l2.077 12.31 2.293-6.39a.48.48 0 0 1 .44-.318.473.473 0 0 1 .456.296l2.158 5.17 1.287-2.771c.079-.17.249-.278.436-.278h3.32a3.135 3.135 0 0 1 3.093-2.65 3.133 3.133 0 0 1 3.13 3.13 3.134 3.134 0 0 1-3.13 3.131 3.135 3.135 0 0 1-3.094-2.65zm-19.07-.476a.491.491 0 0 1 0-.01 2.171 2.171 0 0 0-2.168-2.164 2.171 2.171 0 0 0-2.169 2.169 2.17 2.17 0 0 0 2.17 2.168 2.17 2.17 0 0 0 2.167-2.163zm27.44 6.984V20.814l-4.516 2.696a13.674 13.674 0 0 0-1.407-1.11l5.128-3.061-15.09-9.01a3.035 3.035 0 0 0-3.115 0l-15.089 9.01 5.128 3.061c-.504.349-.976.719-1.408 1.11l-4.516-2.696v17.533c0 1.094.591 2.107 1.543 2.645l15.063 8.512v-8.642a23.495 23.495 0 0 0 1.674 0v8.642L45.9 40.992a3.042 3.042 0 0 0 1.543-2.645zm1.646-19.226c.02.07.03.143.03.218v19.008a4.72 4.72 0 0 1-2.395 4.103l-16.311 9.217c-.042.024-.088.038-.133.054-.022.008-.043.02-.065.027a.833.833 0 0 1-.428 0c-.022-.006-.043-.02-.065-.027-.045-.016-.09-.03-.133-.054L13.276 42.45a4.72 4.72 0 0 1-2.394-4.103V19.34c0-.075.01-.148.03-.218.005-.024.018-.044.027-.067.016-.045.031-.091.055-.133.014-.025.035-.046.052-.07.026-.034.049-.07.08-.101.021-.022.048-.038.072-.058.03-.025.058-.052.093-.073L27.584 8.89c1.49-.889 3.34-.89 4.831 0l16.294 9.73c.034.02.061.047.092.072.024.02.052.036.074.058.03.03.052.067.078.101.017.024.038.045.052.07.024.041.039.087.055.132.009.022.022.044.028.068zm-6.922 10.068a2.171 2.171 0 0 0-2.169 2.169 2.17 2.17 0 0 0 2.169 2.168 2.17 2.17 0 0 0 2.168-2.168 2.171 2.171 0 0 0-2.168-2.169z"/>
</svg>
