<svg xmlns="http://www.w3.org/2000/svg" width="24" height="24" viewBox="0 0 24 24">
    <path fill="#282D3C" fill-rule="evenodd" d="M5.989 14.955a6.348 6.348 0 0 1 0-8.967 6.321 6.321 0 0 1 4.483-1.854c1.624 0 3.248.619 4.483 1.854a6.348 6.348 0 0 1 0 8.967 6.347 6.347 0 0 1-8.966 0m14.87 5.22L16.083 15.4c2.577-2.933 2.474-7.415-.324-10.214-2.916-2.913-7.66-2.913-10.573 0-2.915 2.915-2.915 7.658 0 10.573a7.45 7.45 0 0 0 5.286 2.186 7.458 7.458 0 0 0 4.928-1.861l4.775 4.775a.482.482 0 1 0 .684-.683"/>
</svg>
