<svg xmlns="http://www.w3.org/2000/svg" width="126" height="35" viewBox="0 0 126 35">
    <path fill="#FFF" fill-rule="evenodd" d="M51.604 23.717c.759-.459 1.137-1.199 1.137-2.221 0-1.04-.406-1.789-1.216-2.247-.81-.459-2.08-.688-3.807-.688h-1.19v5.843h1.586c1.57 0 2.732-.23 3.49-.687zm-5.076-12.875v5.392h1.19c.635 0 1.234-.03 1.798-.092.563-.062 1.057-.189 1.48-.384.423-.193.754-.466.991-.82.239-.352.358-.827.358-1.426 0-.529-.107-.97-.318-1.322a2.178 2.178 0 0 0-.872-.82 4.243 4.243 0 0 0-1.322-.41 10.81 10.81 0 0 0-1.666-.118h-1.639zm5.023 6.556c1.34.158 2.402.622 3.186 1.389.785.765 1.177 1.766 1.177 2.999 0 .954-.199 1.75-.595 2.393a4.638 4.638 0 0 1-1.587 1.56c-.66.397-1.418.678-2.274.846-.854.168-1.731.251-2.63.251h-5.366V8.382h5.234c1.057 0 2.005.093 2.842.278.837.185 1.547.467 2.128.847a3.901 3.901 0 0 1 1.349 1.466c.317.6.475 1.304.475 2.116 0 1.11-.334 2.03-1.004 2.762-.67.732-1.648 1.23-2.935 1.494v.053zm20.823-1.348c1.656.652 2.855 1.401 3.595 2.246.741.847 1.11 1.922 1.11 3.227 0 .845-.157 1.617-.475 2.313a5.034 5.034 0 0 1-1.335 1.772c-.572.483-1.265.862-2.075 1.136-.811.274-1.72.41-2.724.41-.846 0-1.643-.061-2.393-.186a10.941 10.941 0 0 1-2.208-.608l.317-2.855c.778.388 1.495.656 2.156.807.66.15 1.3.225 1.917.225 1.058 0 1.917-.23 2.577-.689.661-.457.992-1.1.992-1.928 0-.371-.053-.706-.159-1.006a2.22 2.22 0 0 0-.568-.846c-.273-.264-.64-.524-1.098-.78a15.255 15.255 0 0 0-1.744-.806c-.847-.335-1.56-.683-2.142-1.044-.582-.362-1.053-.754-1.415-1.177a3.993 3.993 0 0 1-.78-1.362c-.158-.484-.237-1.034-.237-1.652 0-.776.149-1.485.449-2.128.3-.643.723-1.19 1.269-1.64.547-.449 1.208-.797 1.983-1.044.775-.247 1.63-.37 2.564-.37.74 0 1.45.053 2.128.16.68.105 1.363.28 2.05.527l-.317 2.644a9.309 9.309 0 0 0-1.904-.62 8.73 8.73 0 0 0-1.692-.172c-.987 0-1.775.215-2.366.647-.59.431-.886.991-.886 1.68 0 .298.044.577.132.831.088.255.26.507.516.754.256.246.604.493 1.043.74.441.246 1.015.511 1.72.794zm28.357 4.441c.264-.864.396-1.824.396-2.882 0-1.074-.132-2.049-.396-2.92-.264-.874-.639-1.614-1.123-2.222a4.92 4.92 0 0 0-1.758-1.4c-.688-.327-1.455-.49-2.3-.49-.83 0-1.577.168-2.248.502-.67.335-1.252.81-1.745 1.427-.493.618-.872 1.359-1.136 2.221-.265.864-.397 1.825-.397 2.882 0 1.058.132 2.022.397 2.896.264.871.643 1.612 1.136 2.22a5.194 5.194 0 0 0 1.758 1.414c.679.335 1.44.503 2.287.503.81 0 1.555-.168 2.235-.503a5.145 5.145 0 0 0 1.757-1.427c.494-.616.873-1.356 1.137-2.221zm1.414-9.848c.768.82 1.358 1.811 1.772 2.974.415 1.163.622 2.467.622 3.913 0 1.481-.212 2.816-.635 4.006-.424 1.189-1.027 2.199-1.81 3.027a8.001 8.001 0 0 1-2.831 1.916c-1.101.45-2.34.675-3.714.675-1.358 0-2.586-.225-3.689-.675a8.081 8.081 0 0 1-2.828-1.903c-.785-.82-1.388-1.815-1.81-2.988-.424-1.172-.636-2.49-.636-3.952 0-1.498.212-2.838.635-4.019.423-1.18 1.031-2.182 1.824-3.002.793-.818 1.755-1.448 2.882-1.889 1.128-.44 2.406-.661 3.834-.661 1.321 0 2.524.224 3.608.674a7.88 7.88 0 0 1 2.776 1.904zm22.067 7.653c.74.846 1.11 1.922 1.11 3.227 0 .845-.158 1.616-.475 2.313a5.024 5.024 0 0 1-1.335 1.772c-.574.483-1.266.863-2.076 1.136-.811.273-1.719.41-2.723.41-.846 0-1.644-.062-2.393-.185a10.974 10.974 0 0 1-2.208-.608l.318-2.856c.776.388 1.494.657 2.154.807.66.15 1.3.225 1.917.225 1.058 0 1.916-.23 2.578-.69.661-.456.992-1.1.992-1.928 0-.37-.054-.704-.159-1.005a2.235 2.235 0 0 0-.568-.846c-.273-.264-.64-.524-1.098-.78a15.24 15.24 0 0 0-1.745-.805c-.846-.337-1.56-.684-2.141-1.045-.582-.362-1.054-.754-1.415-1.177a4.012 4.012 0 0 1-.78-1.362 5.331 5.331 0 0 1-.238-1.652c0-.776.15-1.485.45-2.129.299-.642.723-1.189 1.268-1.638.547-.45 1.209-.798 1.984-1.045.775-.247 1.63-.37 2.564-.37.74 0 1.45.053 2.128.159.68.105 1.362.282 2.05.528l-.318 2.645a9.299 9.299 0 0 0-1.903-.622 8.723 8.723 0 0 0-1.693-.172c-.986 0-1.775.217-2.366.648-.59.431-.885.992-.885 1.68 0 .299.043.576.132.832.088.255.26.506.515.753.256.247.604.494 1.045.74.44.247 1.014.51 1.718.793 1.657.653 2.856 1.402 3.596 2.247zM15.063 9.106l6.43 3.713 5.771-3.332-12.2-7.044v6.664zm12.201 8.36l-5.77-3.331-5.847 3.375 5.77 3.332 5.847-3.376zm-13.34 8.35L7.59 22.157l-5.846 3.376 12.181 7.033v-6.752zm-12.18-8.35l5.845 3.376 5.77-3.332-5.845-3.375-5.77 3.331zm0-7.979l5.77 3.332 6.41-3.7V2.455L1.744 9.487zm-.563.992v5.996l5.193-2.997-5.193-2.999zm13.323 6.376l5.85-3.377-5.85-3.379-5.851 3.379 5.851 3.377zm0 7.98l5.775-3.334-5.775-3.334L8.729 21.5l5.775 3.334zm12.76.699l-5.846-3.376-6.355 3.67v6.75l12.201-7.044zm.562-.992v-6.084l-5.268 3.043 5.268 3.04zm1.179-15.063V9.497a.446.446 0 0 1-.219.428l-.007.004a.438.438 0 0 1-.27.156l-5.875 3.393 5.875 3.391a.437.437 0 0 1 .152.055.44.44 0 0 1 .25.216l.017.026.002.005a.444.444 0 0 1 .076.295l-.001.01a.438.438 0 0 1-.04.216v7.616a.442.442 0 0 1 .04.226v.009a.455.455 0 0 1-.071.28.44.44 0 0 1-.304.268.428.428 0 0 1-.121.04L14.878 34a.44.44 0 0 1-.344.16l-.03.003-.03-.003a.44.44 0 0 1-.345-.16L.5 26.13a.438.438 0 0 1-.271-.156L.22 25.97a.448.448 0 0 1-.218-.427v-.01-.009a.45.45 0 0 1 .218-.428l.008-.004a.442.442 0 0 1 .27-.156L6.45 21.5.5 18.064a.432.432 0 0 1-.182-.07H.314a.114.114 0 0 1-.024-.016.444.444 0 0 1-.179-.171.442.442 0 0 1-.109-.33v-.01-.01a.446.446 0 0 1 .04-.215v-7.53a.444.444 0 0 1-.03-.265c0-.078.02-.155.059-.224a.435.435 0 0 1 .276-.278.445.445 0 0 1 .151-.055l13.519-7.806a.445.445 0 0 1 .218-.159.447.447 0 0 1 .223-.064.423.423 0 0 1 .371.098c.05.028.092.063.129.108l13.55 7.823c.106.018.2.071.27.156l.008.005a.442.442 0 0 1 .219.428z"/>
</svg>
