<svg xmlns="http://www.w3.org/2000/svg" width="55" height="13" viewBox="0 0 55 13">
    <path fill="#FFF" fill-rule="evenodd" d="M5.47 10.516c.51-.308.765-.805.765-1.492 0-.698-.273-1.202-.818-1.51-.544-.308-1.397-.462-2.557-.462h-.8v3.926h1.065c1.055 0 1.836-.154 2.346-.462zm-3.41-8.65v3.623h.8c.426 0 .829-.02 1.207-.062a3.21 3.21 0 0 0 .995-.258c.284-.13.506-.313.666-.55.16-.237.24-.557.24-.96 0-.354-.071-.65-.213-.888a1.463 1.463 0 0 0-.586-.55 2.85 2.85 0 0 0-.888-.276 7.263 7.263 0 0 0-1.12-.079h-1.1zm3.375 4.405c.9.106 1.614.417 2.14.933.528.514.791 1.187.791 2.015 0 .64-.133 1.176-.4 1.608a3.116 3.116 0 0 1-1.065 1.048 4.695 4.695 0 0 1-1.528.568 9.157 9.157 0 0 1-1.767.17H0V.212h3.517c.71 0 1.347.063 1.909.187.563.124 1.04.314 1.43.57.39.253.693.581.906.984.213.403.32.876.32 1.421 0 .746-.225 1.365-.675 1.857-.45.492-1.108.826-1.972 1.003v.036zm13.99-.906c1.113.438 1.919.941 2.416 1.51.498.568.746 1.29.746 2.167 0 .568-.106 1.087-.32 1.554a3.382 3.382 0 0 1-.897 1.19c-.384.326-.85.58-1.394.764a5.712 5.712 0 0 1-1.83.276 9.832 9.832 0 0 1-1.608-.125 7.351 7.351 0 0 1-1.483-.409l.213-1.918c.522.26 1.004.44 1.448.542.444.1.874.151 1.288.151.71 0 1.288-.154 1.732-.463.444-.307.666-.74.666-1.295 0-.25-.035-.474-.107-.676a1.491 1.491 0 0 0-.381-.568 3.543 3.543 0 0 0-.738-.524 10.25 10.25 0 0 0-1.172-.542 9.098 9.098 0 0 1-1.439-.701 4.046 4.046 0 0 1-.95-.791 2.683 2.683 0 0 1-.524-.915 3.559 3.559 0 0 1-.16-1.11c0-.521.1-.998.302-1.43.2-.432.486-.8.852-1.102A3.979 3.979 0 0 1 17.418.25 5.655 5.655 0 0 1 19.14 0c.498 0 .975.036 1.43.107.457.071.916.19 1.378.355l-.214 1.776a6.254 6.254 0 0 0-1.278-.417 5.865 5.865 0 0 0-1.138-.115c-.663 0-1.192.145-1.59.435-.396.29-.595.666-.595 1.128 0 .2.03.388.089.559.06.172.175.34.347.506.172.166.406.332.7.498.297.165.683.343 1.156.533zm19.053 2.984c.177-.58.266-1.226.266-1.936 0-.722-.089-1.377-.266-1.963-.178-.587-.43-1.084-.755-1.492a3.306 3.306 0 0 0-1.181-.941 3.564 3.564 0 0 0-1.546-.33c-.557 0-1.06.114-1.51.339-.45.224-.84.543-1.172.958a4.458 4.458 0 0 0-.764 1.493 6.592 6.592 0 0 0-.266 1.936c0 .71.088 1.358.266 1.945.178.586.433 1.083.764 1.492a3.49 3.49 0 0 0 1.181.95 3.42 3.42 0 0 0 1.536.338 3.345 3.345 0 0 0 2.683-1.297c.331-.414.586-.91.764-1.492zm.95-6.616c.516.55.912 1.216 1.19 1.998.279.781.418 1.657.418 2.629 0 .995-.143 1.892-.427 2.69-.284.8-.69 1.478-1.216 2.035a5.376 5.376 0 0 1-1.902 1.287c-.74.302-1.572.453-2.495.453-.912 0-1.738-.15-2.478-.453a5.43 5.43 0 0 1-1.9-1.279c-.528-.55-.933-1.22-1.217-2.007-.285-.787-.427-1.673-.427-2.656 0-1.006.142-1.906.427-2.7.284-.793.692-1.465 1.225-2.016a5.397 5.397 0 0 1 1.936-1.27C33.32.148 34.18 0 35.138 0c.888 0 1.696.151 2.425.453.728.302 1.35.729 1.865 1.28zm14.826 5.141c.497.569.746 1.292.746 2.168 0 .568-.107 1.086-.32 1.554a3.376 3.376 0 0 1-.897 1.19c-.385.325-.85.58-1.394.764a5.71 5.71 0 0 1-1.83.275 9.893 9.893 0 0 1-1.608-.124 7.373 7.373 0 0 1-1.483-.408l.213-1.92a6.49 6.49 0 0 0 1.448.543c.443.1.873.151 1.288.151.71 0 1.287-.154 1.732-.463.444-.307.666-.739.666-1.295 0-.25-.036-.474-.106-.676-.072-.2-.2-.39-.383-.568a3.559 3.559 0 0 0-.737-.524A10.24 10.24 0 0 0 50.417 7a9.188 9.188 0 0 1-1.439-.702 4.046 4.046 0 0 1-.95-.791 2.696 2.696 0 0 1-.525-.915 3.582 3.582 0 0 1-.16-1.11c0-.521.101-.998.302-1.43.202-.432.486-.8.853-1.101A3.975 3.975 0 0 1 49.83.249 5.654 5.654 0 0 1 51.553 0c.498 0 .974.036 1.43.107.457.07.915.19 1.378.355l-.214 1.777a6.247 6.247 0 0 0-1.279-.418 5.86 5.86 0 0 0-1.137-.115c-.663 0-1.193.145-1.59.435-.397.29-.594.666-.594 1.128 0 .201.029.388.088.56.06.171.175.34.346.506.172.165.406.331.702.497.296.166.681.343 1.155.533 1.113.438 1.918.941 2.416 1.51z"/>
</svg>
